<svg height="23" width="30" xmlns="http://www.w3.org/2000/svg"><path d="M25.435 1.93c3.388 4.982 5.061 10.601 4.436 17.07a.097.097 0 0 1-.04.069 24.798 24.798 0 0 1-7.502 3.785.096.096 0 0 1-.106-.035 20.013 20.013 0 0 1-1.531-2.49.096.096 0 0 1 .051-.134 15.33 15.33 0 0 0 2.341-1.114.096.096 0 0 0 .009-.16 11.916 11.916 0 0 1-.466-.365.092.092 0 0 0-.098-.012c-4.852 2.24-10.168 2.24-15.077 0a.093.093 0 0 0-.097.013c-.15.124-.308.247-.465.364a.096.096 0 0 0 .01.16c.747.428 1.524.806 2.34 1.115.053.02.078.08.052.132a17.81 17.81 0 0 1-1.533 2.492.098.098 0 0 1-.105.034A24.88 24.88 0 0 1 .163 19.07a.102.102 0 0 1-.039-.07c-.523-5.596.543-11.261 4.432-17.07a.088.088 0 0 1 .04-.034A24.684 24.684 0 0 1 10.702.002a.097.097 0 0 1 .099.046c.264.469.567 1.07.772 1.561a22.852 22.852 0 0 1 6.858 0c.205-.48.497-1.092.76-1.56a.093.093 0 0 1 .099-.047 24.742 24.742 0 0 1 6.106 1.893c.017.007.03.02.039.036zM12.721 12.57c.024-1.655-1.182-3.024-2.696-3.024-1.502 0-2.696 1.357-2.696 3.023 0 1.666 1.218 3.023 2.696 3.023 1.502 0 2.696-1.357 2.696-3.023zm9.968 0c.024-1.655-1.182-3.024-2.696-3.024-1.502 0-2.696 1.357-2.696 3.023 0 1.666 1.218 3.023 2.696 3.023 1.514 0 2.696-1.357 2.696-3.023z" fill="#7870ff"/></svg>