<svg height="24" viewBox="0 0 24 24" width="24" xmlns="http://www.w3.org/2000/svg"><g fill="none"><path d="m22.5891094 15.9093281c-2.8969688 6.075-7.3547344 7.3875469-10.5891094 7.3875469-3.64223438 0-7.07348438-1.81875-9.18285938-4.7859375-2.12334374-2.9953125-2.62968749-6.7921875-1.40625-10.42035937l.22504688-.46401563c1.71557812-4.09223437 5.878125-6.9234375 10.3640625-6.9234375 3.6422344 0 7.0734844 1.81875 9.1828594 4.7859375 2.1233437 2.9953125 2.6296875 6.7921875 1.40625 10.4202656z" fill="#65b1fc"/><path d="m22.5891094 15.9093281c-2.8969688 6.075-7.3547344 7.3875469-10.5891094 7.3875469v-22.59375c3.6422344 0 7.0734844 1.81875 9.1828594 4.7859375 2.1233437 2.9953125 2.6296875 6.7921875 1.40625 10.4202656z" fill="#1689fc"/><path d="m21.759375 5.08120313c-2.2499531-3.15000001-5.8921875-5.08120313-9.759375-5.08120313-4.8234375 0-9.2390625 3.028125-11.053125 7.48589063l-.23910937.49223437c-1.29117188 3.9316875-.78843751 7.6557656 1.53285937 10.9405781 2.24995312 3.15 5.8921875 5.0812969 9.759375 5.0812969 4.7671875 0 9.1265625-2.9578125 10.996875-7.3172344l.2108906-.421875c1.4055938-3.9993281.9132188-7.84129685-1.4483906-11.17968747zm-18.365625 13.02187497c-1.99682813-2.8125-2.4609375-6.3702656-1.3078125-9.7874531l.1828125-.37973437c1.1390625-2.728125 3.403125-4.84214063 6.10307812-5.8546875-1.70151562 2.22192187-2.728125 6.54375-2.60151562 7.94999997-.0140625.0422344-.02817188.084375-.02817188.1406719-.365625 4.7108906.703125 9.2578125 2.71406251 11.803125-2.01089063-.7312969-3.79678126-2.0859375-5.06245313-3.8719219zm7.903125 4.3640625c-.4921406-.16875-.984375-.5390156-1.44848438-1.03125-1.96870312-2.1233906-3.05151562-6.6093281-2.69995312-11.1515625v-.1265156c0-.0422344.0140625-.0984375.0140625-.1406719.40776563-4.37343748 2.1234375-7.8233906 4.134375-8.48437498zm1.40625-.0140625v-20.92031247c2.1655781.7171875 3.9797344 4.7015625 4.1905781 9.45468747.196875 4.3875-.8999531 8.5078125-2.7984375 10.5047344-.45.4640156-.9139687.8062031-1.3921406.9608906zm9.2109375-6.7687031c-1.575 3.31875-3.796875 5.3624531-6.3703125 6.2765625 1.884375-2.3765625 2.953125-6.6140625 2.7562031-11.0296875-.16875-3.74067188-1.2234375-6.96557813-2.7562031-8.90625 2.0109375.73120312 3.7968281 2.0859375 5.0624531 3.87182812 1.996875 2.8125 2.4609844 6.37035938 1.3078594 9.78754688z" fill="#96ebe6"/><path d="m21.759375 5.08120313c-2.2499531-3.15000001-5.8921875-5.08120313-9.759375-5.08120313v24c4.7671875 0 9.1265625-2.9578125 10.996875-7.3172344l.2108906-.421875c1.4055938-3.9993281.9132188-7.84129685-1.4483906-11.17968747zm-9.05625 17.37187497v-20.92031247c2.1655781.7171875 3.9797344 4.7015625 4.1905781 9.45468747.196875 4.3875-.8999531 8.5078125-2.7984375 10.5047344-.45.4640156-.9139687.8062031-1.3921406.9608906zm9.2109375-6.7687031c-1.575 3.31875-3.796875 5.3624531-6.3703125 6.2765625 1.884375-2.3765625 2.953125-6.6140625 2.7562031-11.0296875-.16875-3.74067188-1.2234375-6.96557813-2.7562031-8.90625 2.0109375.73120312 3.7968281 2.0859375 5.0624531 3.87182812 1.996875 2.8125 2.4609844 6.37035938 1.3078594 9.78754688z" fill="#00c8c8"/><path d="m21.84375 7.078125h-19.6875c-1.16723437 0-2.15625.94214063-2.15625 2.109375v5.625c0 1.1671406.98901563 2.109375 2.15625 2.109375h19.6875c1.1672344 0 2.15625-.9422344 2.15625-2.109375v-5.625c0-1.16723437-.9890156-2.109375-2.15625-2.109375z" fill="#0053bf"/><path d="m24 9.1875v5.625c0 1.1671406-.9890156 2.109375-2.15625 2.109375h-9.84375v-9.84375h9.84375c1.1672344 0 2.15625.94214063 2.15625 2.109375z" fill="#05377f"/><path d="m15.4453125 10.9030781-1.40625 2.8125c-.1265625.2391094-.365625.3937969-.6328125.3937969s-.50625-.1546875-.6328125-.3937969l-.7734375-1.5468281-.7734375 1.5468281c-.2390156.4781719-1.0266094.4781719-1.26567187 0l-1.40625-2.8125c-.16875-.3375-.02807813-.7593281.32348437-.9421406.3375-.16875.75932813-.02817187.94214063.3233906l.77348437 1.5469219.7734375-1.5469219c.1266094-.2390156.3797344-.36562498.6328125-.36562498s.50625.12660938.6328125.36562498l.7734375 1.5469219.7734375-1.5469219c.1828125-.35156248.6046875-.4921406.9421406-.3233906.3515625.1828125.4922344.6046406.3234844.9421406z" fill="#e1f1fa"/><path d="m20.4375 14.109375c-.2664375 0-.5094844-.150375-.6289687-.3886406l-.7772813-1.5545625-.7772812 1.5545625c-.2389688.4765312-1.0189688.4765312-1.2579375 0l-1.3471875-2.6950781c-.0871875-.1071094-.1435313-.239625-.1531407-.3852188-.0247031-.3872812.247875-.72028125.6351094-.7456875.2939063-.00684375.5905312.1318594.7168594.3845156l.7773281 1.5545625.7772813-1.5545625c.2389687-.47653122 1.0189687-.47653122 1.2579375 0l.7772812 1.5545625.7772813-1.5545625c.1744218-.3481406.5966718-.4861406.9434531-.31448435.3474375.17371875.4882031.59601565.3144844.94345315l-1.40625 2.8125c-.1194844.2382656-.3625313.3886406-.6289688.3886406z" fill="#bfe1ff"/><path d="m7.82657813 9.89198438c-.27670313-.00276563-.54792188.13457812-.67429688.38728122l-.77728125 1.5545625-.77728125-1.5545625c-.25326562-.50479685-1.0074375-.50099997-1.2579375 0l-.77728125 1.5545625-.77728125-1.5545625c-.17442187-.3481406-.597375-.4861406-.94345312-.31448435-.3474375.17371875-.48820313.59601565-.31448438.94345315l1.40625 2.8125c.11948438.2382656.36253125.3886406.62896875.3886406s.50948438-.150375.62896875-.3886406l.77728125-1.5545625.77728125 1.5545625c.11948438.2382656.36253125.3886406.62896875.3886406s.50948438-.150375.62896875-.3886406l1.32454688-2.6490938c.10026562-.114.1648125-.264375.17578125-.4312031.02470312-.3872812-.2904375-.72304687-.67771875-.74845312z" fill="#e1f1fa"/><path d="m15.4453125 10.9030781-1.40625 2.8125c-.1265625.2391094-.365625.3937969-.6328125.3937969s-.50625-.1546875-.6328125-.3937969l-.7734375-1.5468281v-2.25004687c.253125 0 .50625.12660937.6328125.36562497l.7734375 1.5469219.7734375-1.5469219c.1828125-.35156248.6046875-.4921406.9421406-.3233906.3515625.1828125.4922344.6046406.3234844.9421406z" fill="#bfe1ff"/></g></svg>